HIERARCHY
ROOT Hips
{
  OFFSET 5.80788e-005 67.184 3.4734
  CHANNELS 6 Xposition Yposition Zposition Zrotation Xrotation Yrotation
  JOINT Chest
  {
    OFFSET 0 8.7983 -4.7612
    CHANNELS 6 Xposition Yposition Zposition Zrotation Xrotation Yrotation
    JOINT Chest2
    {
      OFFSET 0 8.0291 0.4195
      CHANNELS 6 Xposition Yposition Zposition Zrotation Xrotation Yrotation
      JOINT Chest3
      {
        OFFSET 0 9.9351 -2.2114
        CHANNELS 6 Xposition Yposition Zposition Zrotation Xrotation Yrotation
        JOINT Neck
        {
          OFFSET 0 22.3885 -0.4656
          CHANNELS 6 Xposition Yposition Zposition Zrotation Xrotation Yrotation
          JOINT Head
          {
            OFFSET -0.0001 12.643 3.4389
            CHANNELS 6 Xposition Yposition Zposition Zrotation Xrotation Yrotation
            End Site
            {
              OFFSET 0.0001 17.6655 0.5274
            }
          }
        }
        JOINT LeftCollar
        {
          OFFSET 2.2603 21.606 7.4023
          CHANNELS 6 Xposition Yposition Zposition Zrotation Xrotation Yrotation
          JOINT LeftShoulder
          {
            OFFSET 13.5163 -1.1332 -5.0146
            CHANNELS 6 Xposition Yposition Zposition Zrotation Xrotation Yrotation
            JOINT LeftElbow
            {
              OFFSET -0.0995 -28.05 -0.2431
              CHANNELS 6 Xposition Yposition Zposition Zrotation Xrotation Yrotation
              JOINT LeftWrist
              {
                OFFSET 0.0679 -23.3996 -0.1402
                CHANNELS 6 Xposition Yposition Zposition Zrotation Xrotation Yrotation
                JOINT LeftFinger1
                {
                  OFFSET 0.7932 -9.069 2.5189
                  CHANNELS 6 Xposition Yposition Zposition Zrotation Xrotation Yrotation
                  JOINT LeftFinger11
                  {
                    OFFSET -0.8272 -3.3923 0.5977
                    CHANNELS 6 Xposition Yposition Zposition Zrotation Xrotation Yrotation
                    JOINT LeftFinger12
                    {
                      OFFSET -0.5649 -2.3158 0.4082
                      CHANNELS 6 Xposition Yposition Zposition Zrotation Xrotation Yrotation
                      End Site
                      {
                        OFFSET -0.4919 -1.6479 0.2673
                      }
                    }
                  }
                }
                JOINT LeftFinger2
                {
                  OFFSET 0.9159 -9.2044 0.2193
                  CHANNELS 6 Xposition Yposition Zposition Zrotation Xrotation Yrotation
                  JOINT LeftFinger21
                  {
                    OFFSET 0.0117 -4.1944 -0.0248
                    CHANNELS 6 Xposition Yposition Zposition Zrotation Xrotation Yrotation
                    JOINT LeftFinger22
                    {
                      OFFSET 0.0071 -2.3249 -0.0142
                      CHANNELS 6 Xposition Yposition Zposition Zrotation Xrotation Yrotation
                      End Site
                      {
                        OFFSET -0.1475 -2.0882 0.0028
                      }
                    }
                  }
                }
                JOINT LeftFinger3
                {
                  OFFSET 0.6113 -8.7231 -2.0637
                  CHANNELS 6 Xposition Yposition Zposition Zrotation Xrotation Yrotation
                  JOINT LeftFinger31
                  {
                    OFFSET -0.1927 -3.8059 -0.2383
                    CHANNELS 6 Xposition Yposition Zposition Zrotation Xrotation Yrotation
                    JOINT LeftFinger32
                    {
                      OFFSET -0.1091 -2.1688 -0.1362
                      CHANNELS 6 Xposition Yposition Zposition Zrotation Xrotation Yrotation
                      End Site
                      {
                        OFFSET -0.2358 -1.9176 -0.0906
                      }
                    }
                  }
                }
                JOINT LeftFinger4
                {
                  OFFSET -0.6151 -8.0947 -3.5641
                  CHANNELS 6 Xposition Yposition Zposition Zrotation Xrotation Yrotation
                  JOINT LeftFinger41
                  {
                    OFFSET -0.4882 -2.341 -0.6462
                    CHANNELS 6 Xposition Yposition Zposition Zrotation Xrotation Yrotation
                    JOINT LeftFinger42
                    {
                      OFFSET -0.3575 -1.7167 -0.4742
                      CHANNELS 6 Xposition Yposition Zposition Zrotation Xrotation Yrotation
                      End Site
                      {
                        OFFSET -0.4187 -1.5237 -0.3496
                      }
                    }
                  }
                }
                JOINT LeftFinger0
                {
                  OFFSET -1.42 -1.8761 1.4223
                  CHANNELS 6 Xposition Yposition Zposition Zrotation Xrotation Yrotation
                  JOINT LeftFinger01
                  {
                    OFFSET -1.1471 -3.4929 2.6334
                    CHANNELS 6 Xposition Yposition Zposition Zrotation Xrotation Yrotation
                    JOINT LeftFinger02
                    {
                      OFFSET -0.823 -2.3 1.6571
                      CHANNELS 6 Xposition Yposition Zposition Zrotation Xrotation Yrotation
                      End Site
                      {
                        OFFSET -0.5822 -1.6914 1.1582
                      }
                    }
                  }
                }
              }
            }
          }
        }
        JOINT RightCollar
        {
          OFFSET -2.2603 21.606 7.4023
          CHANNELS 6 Xposition Yposition Zposition Zrotation Xrotation Yrotation
          JOINT RightShoulder
          {
            OFFSET -13.5187 -1.1334 -5.0155
            CHANNELS 6 Xposition Yposition Zposition Zrotation Xrotation Yrotation
            JOINT RightElbow
            {
              OFFSET 0.0994 -28.0499 -0.2431
              CHANNELS 6 Xposition Yposition Zposition Zrotation Xrotation Yrotation
              JOINT RightWrist
              {
                OFFSET -0.0679 -23.3996 -0.1402
                CHANNELS 6 Xposition Yposition Zposition Zrotation Xrotation Yrotation
                JOINT RightFinger1
                {
                  OFFSET -0.7932 -9.0691 2.5189
                  CHANNELS 6 Xposition Yposition Zposition Zrotation Xrotation Yrotation
                  JOINT RightFinger11
                  {
                    OFFSET 0.8272 -3.3923 0.5977
                    CHANNELS 6 Xposition Yposition Zposition Zrotation Xrotation Yrotation
                    JOINT RightFinger12
                    {
                      OFFSET 0.565 -2.3158 0.4082
                      CHANNELS 6 Xposition Yposition Zposition Zrotation Xrotation Yrotation
                      End Site
                      {
                        OFFSET 0.4919 -1.6479 0.2673
                      }
                    }
                  }
                }
                JOINT RightFinger2
                {
                  OFFSET -0.916 -9.2044 0.2193
                  CHANNELS 6 Xposition Yposition Zposition Zrotation Xrotation Yrotation
                  JOINT RightFinger21
                  {
                    OFFSET -0.0117 -4.1944 -0.0248
                    CHANNELS 6 Xposition Yposition Zposition Zrotation Xrotation Yrotation
                    JOINT RightFinger22
                    {
                      OFFSET -0.0071 -2.3249 -0.0142
                      CHANNELS 6 Xposition Yposition Zposition Zrotation Xrotation Yrotation
                      End Site
                      {
                        OFFSET 0.1475 -2.0882 0.0028
                      }
                    }
                  }
                }
                JOINT RightFinger3
                {
                  OFFSET -0.6113 -8.7231 -2.0637
                  CHANNELS 6 Xposition Yposition Zposition Zrotation Xrotation Yrotation
                  JOINT RightFinger31
                  {
                    OFFSET 0.1927 -3.8059 -0.2383
                    CHANNELS 6 Xposition Yposition Zposition Zrotation Xrotation Yrotation
                    JOINT RightFinger32
                    {
                      OFFSET 0.1091 -2.1688 -0.1362
                      CHANNELS 6 Xposition Yposition Zposition Zrotation Xrotation Yrotation
                      End Site
                      {
                        OFFSET 0.2358 -1.9176 -0.0906
                      }
                    }
                  }
                }
                JOINT RightFinger4
                {
                  OFFSET 0.6151 -8.0947 -3.564
                  CHANNELS 6 Xposition Yposition Zposition Zrotation Xrotation Yrotation
                  JOINT RightFinger41
                  {
                    OFFSET 0.4882 -2.341 -0.6462
                    CHANNELS 6 Xposition Yposition Zposition Zrotation Xrotation Yrotation
                    JOINT RightFinger42
                    {
                      OFFSET 0.3574 -1.7166 -0.4742
                      CHANNELS 6 Xposition Yposition Zposition Zrotation Xrotation Yrotation
                      End Site
                      {
                        OFFSET 0.4187 -1.5237 -0.3496
                      }
                    }
                  }
                }
                JOINT RightFinger0
                {
                  OFFSET 1.4199 -1.8761 1.4221
                  CHANNELS 6 Xposition Yposition Zposition Zrotation Xrotation Yrotation
                  JOINT RightFinger01
                  {
                    OFFSET 1.1472 -3.4929 2.6336
                    CHANNELS 6 Xposition Yposition Zposition Zrotation Xrotation Yrotation
                    JOINT RightFinger02
                    {
                      OFFSET 0.8229 -2.3 1.6571
                      CHANNELS 6 Xposition Yposition Zposition Zrotation Xrotation Yrotation
                      End Site
                      {
                        OFFSET 0.5822 -1.6914 1.1582
                      }
                    }
                  }
                }
              }
            }
          }
        }
      }
    }
  }
  JOINT RightHip
  {
    OFFSET -9.412 3.9771 -0.7758
    CHANNELS 6 Xposition Yposition Zposition Zrotation Xrotation Yrotation
    JOINT RightKnee
    {
      OFFSET -0.7531 -40.938 0
      CHANNELS 6 Xposition Yposition Zposition Zrotation Xrotation Yrotation
      JOINT RightAnkle
      {
        OFFSET 0 -40.1986 0
        CHANNELS 6 Xposition Yposition Zposition Zrotation Xrotation Yrotation
        JOINT RightToe
        {
          OFFSET 0 -4.4182 9.239
          CHANNELS 6 Xposition Yposition Zposition Zrotation Xrotation Yrotation
          End Site
          {
            OFFSET 0 0 6.1981
          }
        }
      }
    }
  }
  JOINT LeftHip
  {
    OFFSET 9.4119 3.9773 -0.7758
    CHANNELS 6 Xposition Yposition Zposition Zrotation Xrotation Yrotation
    JOINT LeftKnee
    {
      OFFSET 0.7532 -40.9383 0
      CHANNELS 6 Xposition Yposition Zposition Zrotation Xrotation Yrotation
      JOINT LeftAnkle
      {
        OFFSET 0 -40.1986 0
        CHANNELS 6 Xposition Yposition Zposition Zrotation Xrotation Yrotation
        JOINT LeftToe
        {
          OFFSET 0 -4.4182 9.239
          CHANNELS 6 Xposition Yposition Zposition Zrotation Xrotation Yrotation
          End Site
          {
            OFFSET 0 0 6.1981
          }
        }
      }
    }
  }
}
MOTION
Frames:	4
Frame Time:	0.0333333
29.8584 13.91 5.60524 -90.4034 -89.7353 89.3393 0 8.7983 -4.7612 -0.323172 3.68115 -0.150206 0 8.0291 0.4195 -0.638633 7.36308 -0.280425 -7.10543e-015 9.9351 -2.2114 -0.638636 7.36312 -0.280426 0 22.3885 -0.4656 9.58585e-007 -27.3574 3.60366e-007 -0.0001 12.643 3.4389 -0.0531125 -16.5992 -0.0194197 2.2603 21.606 7.4023 -13.1485 10.0768 -17.928 13.5163 -1.1332 -5.0146 49.2292 -48.3792 53.0751 -0.0995 -28.05 -0.2431 153.806 -49.2624 122.817 0.0679 -23.3996 -0.1402 -2.95756 -12.3643 -12.9001 0.7932 -9.069 2.5189 1.64804e-006 -7.05504e-006 4.42765e-007 -0.8272 -3.3923 0.5977 -1.64804e-006 7.05504e-006 -4.42764e-007 -0.5649 -2.3158 0.4082 1.19271e-015 6.36111e-015 -3.18055e-015 0.9159 -9.2044 0.2193 1.64804e-006 -7.05504e-006 4.42765e-007 0.0117 -4.1944 -0.0248 -0.01282 0.00233328 8.03949e-005 0.0071 -2.3249 -0.0142 1.98785e-015 3.18055e-015 -6.65929e-015 0.6113 -8.7231 -2.0637 1.64804e-006 -7.05504e-006 4.42765e-007 -0.1927 -3.8059 -0.2383 -0.0160636 0.0030049 0.000852802 -0.1091 -2.1688 -0.1362 7.95139e-016 6.36111e-015 1.59028e-015 -0.6151 -8.0947 -3.5641 1.64804e-006 -7.05504e-006 4.42765e-007 -0.4882 -2.341 -0.6462 -0.0126058 0.00312997 0.00282528 -0.3575 -1.7167 -0.4742 1.59028e-015 3.18055e-015 -3.08116e-015 -1.42 -1.8761 1.4223 1.64804e-006 -7.05504e-006 4.42765e-007 -1.1471 -3.4929 2.6334 -1.64804e-006 7.05504e-006 -4.42764e-007 -0.823 -2.3 1.6571 1.19271e-015 6.36111e-015 -3.18055e-015 -2.2603 21.606 7.4023 11.7834 10.2901 13.5716 -13.5187 -1.1334 -5.0155 -43.1169 -51.1744 -46.5088 0.0994 -28.0499 -0.2431 -151.332 -47.7714 -121.918 -0.0679 -23.3996 -0.1402 2.62894 -12.3217 13.3841 -0.7932 -9.0691 2.5189 3.97569e-016 1.59028e-015 4.77083e-015 0.8272 -3.3923 0.5977 1.98785e-015 0 5.26779e-015 0.565 -2.3158 0.4082 2.38542e-015 0 2.5842e-015 -0.916 -9.2044 0.2193 3.97569e-016 1.59028e-015 4.77083e-015 -0.0117 -4.1944 -0.0248 0.0129569 0.00231346 -7.98467e-005 -0.0071 -2.3249 -0.0142 -1.62763e-031 -1.59028e-015 -5.86415e-015 -0.6113 -8.7231 -2.0637 3.97569e-016 1.59028e-015 4.77083e-015 0.1927 -3.8059 -0.2383 0.0163537 0.00304383 -0.000870272 0.1091 -2.1688 -0.1362 3.97569e-016 3.18055e-015 3.27995e-015 0.6151 -8.0947 -3.564 3.97569e-016 1.59028e-015 4.77083e-015 0.4882 -2.341 -0.6462 0.0145446 0.00366446 -0.00324835 0.3574 -1.7166 -0.4742 -2.78299e-015 -3.18055e-015 1.2921e-015 1.4199 -1.8761 1.4221 3.97569e-016 1.59028e-015 4.77083e-015 1.1472 -3.4929 2.6336 1.98785e-015 0 5.26779e-015 0.8229 -2.3 1.6571 2.38542e-015 0 2.5842e-015 -9.412 3.9771 -0.7758 -34.7685 -25.624 -42.8178 -0.7531 -40.938 -1.77636e-015 -144.618 45.2389 154.948 0 -40.1986 0 -7.40617 13.6784 -4.49792 0 -4.4182 9.239 8.96181e-008 1.63485e-006 -1.72845e-006 9.4119 3.9773 -0.7758 34.7848 -25.6381 42.7972 0.7532 -40.9383 7.10543e-015 144.631 45.2324 -154.962 -8.88178e-016 -40.1986 0 7.42039 13.7065 4.48373 1.77636e-015 -4.4182 9.239 -1.59028e-015 3.57106e-008 -1.59028e-015 
29.8584 13.9092 5.63286 -90.4034 -89.7353 89.3393 3.55271e-015 8.7983 -4.7612 -0.323172 3.68115 -0.150206 3.55271e-015 8.0291 0.4195 -0.638633 7.36308 -0.280425 -3.55271e-015 9.9351 -2.2114 -0.638636 7.36312 -0.280426 -3.55271e-015 22.3885 -0.4656 1.05989e-006 -27.5906 2.84898e-007 -0.0001 12.643 3.4389 -0.0535036 -17.4375 -0.0191603 2.2603 21.606 7.4023 -13.0777 9.9366 -17.8093 13.5163 -1.1332 -5.0146 49.2289 -48.3795 53.0749 -0.0995 -28.05 -0.2431 153.806 -49.2624 122.817 0.0679 -23.3996 -0.1402 -2.98109 -12.1614 -12.8423 0.7932 -9.069 2.5189 -2.53933e-006 -4.34087e-006 -3.89188e-006 -0.8272 -3.3923 0.5977 -1.98785e-015 -3.18055e-015 1.78906e-015 -0.5649 -2.3158 0.4082 -2.38542e-015 0 -4.87022e-015 0.9159 -9.2044 0.2193 -2.53933e-006 -4.34087e-006 -3.89188e-006 0.0117 -4.1944 -0.0248 -0.0128067 0.00232237 8.95909e-005 0.0071 -2.3249 -0.0142 -3.77577e-006 8.20362e-006 4.71965e-007 0.6113 -8.7231 -2.0637 -2.53933e-006 -4.34087e-006 -3.89188e-006 -0.1927 -3.8059 -0.2383 -0.0160565 0.00299891 0.000861726 -0.1091 -2.1688 -0.1362 1.19271e-015 -9.54166e-015 5.96354e-016 -0.6151 -8.0947 -3.5641 -2.53933e-006 -4.34087e-006 -3.89188e-006 -0.4882 -2.341 -0.6462 -0.0125583 0.00311789 0.00282678 -0.3575 -1.7167 -0.4742 -2.88412e-006 -3.51294e-007 3.92028e-006 -1.42 -1.8761 1.4223 -2.53933e-006 -4.34087e-006 -3.89188e-006 -1.1471 -3.4929 2.6334 -1.98785e-015 -3.18055e-015 1.78906e-015 -0.823 -2.3 1.6571 -2.38542e-015 0 -4.87022e-015 -2.2603 21.606 7.4023 11.7227 10.1473 13.4293 -13.5187 -1.1334 -5.0155 -43.1169 -51.1744 -46.5088 0.0994 -28.0499 -0.2431 -151.332 -47.7714 -121.918 -0.0679 -23.3996 -0.1402 2.6536 -12.1225 13.3214 -0.7932 -9.0691 2.5189 3.97569e-016 -1.59028e-015 -9.93923e-016 0.8272 -3.3923 0.5977 -7.95139e-016 -3.18055e-015 -4.27387e-015 0.565 -2.3158 0.4082 3.97569e-016 0 -1.19271e-015 -0.916 -9.2044 0.2193 3.97569e-016 -1.59028e-015 -9.93923e-016 -0.0117 -4.1944 -0.0248 0.0129449 0.00232707 -9.60736e-005 -0.0071 -2.3249 -0.0142 -2.78299e-015 -1.59028e-015 1.39149e-015 -0.6113 -8.7231 -2.0637 3.97569e-016 -1.59028e-015 -9.93923e-016 0.1927 -3.8059 -0.2383 0.0163331 0.00304641 -0.00087801 0.1091 -2.1688 -0.1362 3.97569e-016 1.59028e-015 -1.2921e-015 0.6151 -8.0947 -3.564 3.97569e-016 -1.59028e-015 -9.93923e-016 0.4882 -2.341 -0.6462 0.0145657 0.00366909 -0.0032637 0.3574 -1.7166 -0.4742 -1.98785e-015 -1.59028e-015 -2.18663e-015 1.4199 -1.8761 1.4221 3.97569e-016 -1.59028e-015 -9.93923e-016 1.1472 -3.4929 2.6336 -7.95139e-016 -3.18055e-015 -4.27387e-015 0.8229 -2.3 1.6571 3.97569e-016 0 -1.19271e-015 -9.412 3.9771 -0.7758 -34.7642 -25.6278 -42.8179 -0.7531 -40.938 2.66454e-015 -144.535 45.338 154.819 7.10543e-015 -40.1986 7.10543e-015 -7.39846 13.6789 -4.49904 0 -4.4182 9.239 3.28071e-006 2.88498e-006 -2.32016e-006 9.4119 3.9773 -0.7758 34.7803 -25.6418 42.7973 0.7532 -40.9383 -3.55271e-015 144.548 45.333 -154.834 -1.77636e-015 -40.1986 0 7.41276 13.7069 4.48475 -1.77636e-015 -4.4182 9.239 1.61646e-006 -2.29872e-006 5.3058e-007 
29.8584 13.9084 5.66048 -90.4034 -89.7353 89.3393 3.55271e-015 8.7983 -4.7612 -0.323172 3.68115 -0.150206 3.55271e-015 8.0291 0.4195 -0.638633 7.36308 -0.280425 0 9.9351 -2.2114 -0.638636 7.36312 -0.280426 3.55271e-015 22.3885 -0.4656 9.52048e-007 -27.8239 3.04664e-007 -0.0001 12.643 3.4389 -0.0539893 -18.277 -0.019228 2.2603 21.606 7.4023 -13.0067 9.79649 -17.6904 13.5163 -1.1332 -5.0146 49.2289 -48.3795 53.0749 -0.0995 -28.05 -0.2431 153.806 -49.2624 122.817 0.0679 -23.3996 -0.1402 -3.00481 -11.9586 -12.7844 0.7932 -9.069 2.5189 1.03348e-005 -5.98071e-006 -4.99918e-006 -0.8272 -3.3923 0.5977 -5.29122e-006 9.2331e-006 6.47833e-006 -0.5649 -2.3158 0.4082 -2.88558e-006 1.09412e-005 3.91765e-006 0.9159 -9.2044 0.2193 1.03348e-005 -5.98071e-006 -4.99918e-006 0.0117 -4.1944 -0.0248 -0.0128224 0.00232527 9.3962e-005 0.0071 -2.3249 -0.0142 -4.05294e-006 1.01954e-005 2.116e-006 0.6113 -8.7231 -2.0637 1.03348e-005 -5.98071e-006 -4.99918e-006 -0.1927 -3.8059 -0.2383 -0.0160716 0.00300385 0.000867886 -0.1091 -2.1688 -0.1362 3.29504e-006 3.04994e-006 8.89194e-007 -0.6151 -8.0947 -3.5641 1.03348e-005 -5.98071e-006 -4.99918e-006 -0.4882 -2.341 -0.6462 -0.0125959 0.00313362 0.00283541 -0.3575 -1.7167 -0.4742 1.22906e-005 -3.32774e-006 1.07145e-007 -1.42 -1.8761 1.4223 1.03348e-005 -5.98071e-006 -4.99918e-006 -1.1471 -3.4929 2.6334 -5.29122e-006 9.2331e-006 6.47833e-006 -0.823 -2.3 1.6571 -2.88558e-006 1.09412e-005 3.91765e-006 -2.2603 21.606 7.4023 11.6615 10.0047 13.2868 -13.5187 -1.1334 -5.0155 -43.1169 -51.1744 -46.5088 0.0994 -28.0499 -0.2431 -151.332 -47.7714 -121.918 -0.0679 -23.3996 -0.1402 2.67843 -11.9234 13.2586 -0.7932 -9.0691 2.5189 -1.19271e-015 -9.54166e-015 5.06901e-015 0.8272 -3.3923 0.5977 -1.59028e-015 -7.95139e-015 1.39149e-015 0.565 -2.3158 0.4082 2.5001e-006 8.50771e-006 -8.20376e-006 -0.916 -9.2044 0.2193 -1.19271e-015 -9.54166e-015 5.06901e-015 -0.0117 -4.1944 -0.0248 0.0129705 0.00231986 -0.000101568 -0.0071 -2.3249 -0.0142 -5.1684e-015 3.18055e-015 1.6201e-014 -0.6113 -8.7231 -2.0637 -1.19271e-015 -9.54166e-015 5.06901e-015 0.1927 -3.8059 -0.2383 0.0163035 0.00304434 -0.000878688 0.1091 -2.1688 -0.1362 3.97569e-016 1.59028e-015 -2.48481e-015 0.6151 -8.0947 -3.564 -1.19271e-015 -9.54166e-015 5.06901e-015 0.4882 -2.341 -0.6462 0.0145769 0.00368306 -0.00326962 0.3574 -1.7166 -0.4742 -9.57378e-007 3.58526e-006 -3.46502e-006 1.4199 -1.8761 1.4221 -1.19271e-015 -9.54166e-015 5.06901e-015 1.1472 -3.4929 2.6336 -1.59028e-015 -7.95139e-015 1.39149e-015 0.8229 -2.3 1.6571 2.5001e-006 8.50771e-006 -8.20376e-006 -9.412 3.9771 -0.7758 -34.7597 -25.6317 -42.8178 -0.7531 -40.938 -1.77636e-015 -144.451 45.4369 154.689 -7.10543e-015 -40.1986 -7.10543e-015 -7.39077 13.6794 -4.5001 0 -4.4182 9.239 1.29443e-006 -3.13501e-006 -1.33052e-006 9.4119 3.9773 -0.7758 34.7758 -25.6456 42.7974 0.7532 -40.9383 0 144.466 45.4335 -154.705 -2.66454e-015 -40.1986 0 7.40507 13.7074 4.48576 1.77636e-015 -4.4182 9.239 -5.66047e-007 1.14629e-007 -1.06002e-006 
29.8584 13.9076 5.68811 -90.4034 -89.7353 89.3393 0 8.7983 -4.7612 -0.323172 3.68115 -0.150206 3.55271e-015 8.0291 0.4195 -0.638633 7.36308 -0.280425 -3.55271e-015 9.9351 -2.2114 -0.638636 7.36312 -0.280426 0 22.3885 -0.4656 6.16146e-007 -28.0572 3.05552e-007 -0.0001 12.643 3.4389 -0.0548185 -19.1173 -0.0203414 2.2603 21.606 7.4023 -12.9354 9.65653 -17.5713 13.5163 -1.1332 -5.0146 49.229 -48.3795 53.0749 -0.0995 -28.05 -0.2431 153.806 -49.2624 122.817 0.0679 -23.3996 -0.1402 -3.02871 -11.7557 -12.7264 0.7932 -9.069 2.5189 -1.60004e-031 -3.18055e-015 -2.88238e-015 -0.8272 -3.3923 0.5977 3.77504e-006 -1.04622e-005 -4.63798e-007 -0.5649 -2.3158 0.4082 1.59028e-015 -3.18055e-015 2.88238e-015 0.9159 -9.2044 0.2193 -1.60004e-031 -3.18055e-015 -2.88238e-015 0.0117 -4.1944 -0.0248 -0.0128214 0.00232307 8.42701e-005 0.0071 -2.3249 -0.0142 -3.77573e-006 6.63007e-006 4.63649e-007 0.6113 -8.7231 -2.0637 -1.60004e-031 -3.18055e-015 -2.88238e-015 -0.1927 -3.8059 -0.2383 -0.0160385 0.00298378 0.00085418 -0.1091 -2.1688 -0.1362 4.8668e-006 1.54163e-005 7.49674e-006 -0.6151 -8.0947 -3.5641 -1.60004e-031 -3.18055e-015 -2.88238e-015 -0.4882 -2.341 -0.6462 -0.0126017 0.00312013 0.00282616 -0.3575 -1.7167 -0.4742 7.2741e-006 -7.11585e-006 4.93676e-006 -1.42 -1.8761 1.4223 -1.60004e-031 -3.18055e-015 -2.88238e-015 -1.1471 -3.4929 2.6334 3.77504e-006 -1.04622e-005 -4.63798e-007 -0.823 -2.3 1.6571 1.59028e-015 -3.18055e-015 2.88238e-015 -2.2603 21.606 7.4023 11.6001 9.86228 13.1442 -13.5187 -1.1334 -5.0155 -43.1168 -51.1745 -46.5088 0.0994 -28.0499 -0.2431 -151.332 -47.7714 -121.918 -0.0679 -23.3996 -0.1402 2.70352 -11.7241 13.1958 -0.7932 -9.0691 2.5189 4.37326e-015 0 -8.94531e-016 0.8272 -3.3923 0.5977 1.98785e-015 -1.59028e-015 -3.77691e-015 0.565 -2.3158 0.4082 1.98785e-015 -3.18055e-015 -2.98177e-016 -0.916 -9.2044 0.2193 4.37326e-015 0 -8.94531e-016 -0.0117 -4.1944 -0.0248 0.0129521 0.00232095 -8.69704e-005 -0.0071 -2.3249 -0.0142 -1.59028e-015 -9.54166e-015 6.06293e-015 -0.6113 -8.7231 -2.0637 4.37326e-015 0 -8.94531e-016 0.1927 -3.8059 -0.2383 0.0163355 0.00304356 -0.000865976 0.1091 -2.1688 -0.1362 -7.95139e-016 -4.77083e-015 -3.37934e-015 0.6151 -8.0947 -3.564 4.37326e-015 0 -8.94531e-016 0.4882 -2.341 -0.6462 0.0145861 0.00368188 -0.00326234 0.3574 -1.7166 -0.4742 4.96564e-032 1.59028e-015 -1.78906e-015 1.4199 -1.8761 1.4221 4.37326e-015 0 -8.94531e-016 1.1472 -3.4929 2.6336 1.98785e-015 -1.59028e-015 -3.77691e-015 0.8229 -2.3 1.6571 1.98785e-015 -3.18055e-015 -2.98177e-016 -9.412 3.9771 -0.7758 -34.7553 -25.6355 -42.8177 -0.7531 -40.938 2.66454e-015 -144.367 45.5358 154.558 0 -40.1986 0 -7.38314 13.6798 -4.50117 -7.10543e-015 -4.4182 9.239 2.41862e-007 5.28879e-009 -7.97902e-007 9.4119 3.9773 -0.7758 34.7713 -25.6493 42.7974 0.7532 -40.9383 0 144.383 45.5338 -154.576 0 -40.1986 0 7.3975 13.7078 4.48673 0 -4.4182 9.239 -1.07523e-006 9.85481e-007 -4.15044e-007 
